<?xml version="1.0" encoding="UTF-8" standalone="no"?>
<svg
   xmlns:svg="http://www.w3.org/2000/svg"
   xmlns="http://www.w3.org/2000/svg"
   id="vinyl"
   height="50"
   width="120"
   version="1.0">
  <g><text x="45" y="35" style="text-anchor: middle; font-size: 32px; font-family: &quot;Georgia&quot;;">vinyl</text><g transform="matrix(0.75,0,0,0.75, 85.1406, 13.6229)"><g><path d="M31.11,23a0.89,0.89,0,0,1-.89-0.88V15.88C30.22,6.91,25,1.76,16,1.76S1.78,6.91,1.78,15.88v6.23a0.89,0.89,0,0,1-1.78,0V15.88A19.12,19.12,0,0,1,1.25,8.74a13.13,13.13,0,0,1,3.47-5C7.49,1.3,11.39,0,16,0s8.51,1.3,11.28,3.75a13.17,13.17,0,0,1,3.47,5A19.1,19.1,0,0,1,32,15.88v6.23a0.89,0.89,0,0,1-.89.88h0ZM9.78,14.12a2.67,2.67,0,0,0-2.52,1.79A5.64,5.64,0,0,0,3,17.76a6.56,6.56,0,0,0-1.19,4.3A6.54,6.54,0,0,0,3,26.36a5.62,5.62,0,0,0,4.28,1.86,2.67,2.67,0,0,0,5.19-.86V16.76A2.66,2.66,0,0,0,9.78,14.12ZM3.56,22.06c0-2.49.62-4.11,3.56-4.38v8.75C4.18,26.17,3.56,24.55,3.56,22.06Zm7.11,5.29a0.89,0.89,0,0,1-1.78,0V16.76a0.89,0.89,0,0,1,1.78,0V27.35ZM29,17.76a5.62,5.62,0,0,0-4.28-1.86,2.67,2.67,0,0,0-5.19.86V27.35a2.67,2.67,0,0,0,5.19.86A5.63,5.63,0,0,0,29,26.36a6.53,6.53,0,0,0,1.2-4.3,6.54,6.54,0,0,0-1.2-4.3h0Zm-6.8,10.47a0.89,0.89,0,0,1-.89-0.88V16.76a0.89,0.89,0,0,1,1.78,0V27.35A0.89,0.89,0,0,1,22.22,28.24Zm2.67-1.8V17.68c2.93,0.26,3.56,1.89,3.56,4.38S27.82,26.17,24.89,26.44Z" fill="#ff5656"></path></g></g></g></svg>