<?xml version="1.0" standalone="yes"?>
<svg width="120" height="50">
<path style="fill:#ffffff; stroke:none;" d="M0 0L0 50L120 50L120 0L0 0z"/>
<path style="fill:#fafafa; stroke:none;" d="M73 10L74 11L73 10z"/>
<path style="fill:#eaeaea; stroke:none;" d="M74 10L75 11L74 10z"/>
<path style="fill:#dbdbdb; stroke:none;" d="M75 10L76 11L75 10z"/>
<path style="fill:#f0f0f0; stroke:none;" d="M76 10L77 11L76 10z"/>
<path style="fill:#e7e7e7; stroke:none;" d="M29 11L30 12L29 11z"/>
<path style="fill:#6c6c6c; stroke:none;" d="M30 11L31 12L30 11z"/>
<path style="fill:#737373; stroke:none;" d="M31 11L32 12L31 11z"/>
<path style="fill:#ebebeb; stroke:none;" d="M32 11L33 12L32 11z"/>
<path style="fill:#7d7d7d; stroke:none;" d="M70 11L71 12L70 11z"/>
<path style="fill:#1b1b1b; stroke:none;" d="M71 11L72 12L71 11z"/>
<path style="fill:#0b0b0b; stroke:none;" d="M72 11L73 12L72 11z"/>
<path style="fill:#000000; stroke:none;" d="M73 11C74.1931 17.4268 76.1346 28.5425 72 34L72 35L78 35L78 34C73.8776 28.5586 76 17.6473 76 11L73 11z"/>
<path style="fill:#949494; stroke:none;" d="M76 11L77 12L76 11z"/>
<path style="fill:#3a3a3a; stroke:none;" d="M29 12L30 13L29 12z"/>
<path style="fill:#000000; stroke:none;" d="M30 12L30 15L32 15L32 12L30 12z"/>
<path style="fill:#494949; stroke:none;" d="M32 12L33 13L32 12z"/>
<path style="fill:#dddddd; stroke:none;" d="M70 12L71 13L70 12z"/>
<path style="fill:#a5a5a5; stroke:none;" d="M71 12L72 13L71 12z"/>
<path style="fill:#4b4b4b; stroke:none;" d="M72 12L73 13L72 12z"/>
<path style="fill:#939393; stroke:none;" d="M76 12L76 32L77 32L76 12z"/>
<path style="fill:#fcfcfc; stroke:none;" d="M28 13L29 14L28 13z"/>
<path style="fill:#030303; stroke:none;" d="M29 13L30 14L29 13z"/>
<path style="fill:#191919; stroke:none;" d="M32 13L33 14L32 13z"/>
<path style="fill:#fdfdfd; stroke:none;" d="M72 13L73 14L72 13z"/>
<path style="fill:#383838; stroke:none;" d="M73 13L74 14L73 13z"/>
<path style="fill:#fffefe; stroke:none;" d="M93 13L94 14L93 13z"/>
<path style="fill:#ffe5e5; stroke:none;" d="M94 13L95 14L94 13z"/>
<path style="fill:#ffd3d3; stroke:none;" d="M95 13L96 14L95 13z"/>
<path style="fill:#ffc7c7; stroke:none;" d="M96 13L97 14L96 13z"/>
<path style="fill:#ffc3c3; stroke:none;" d="M97 13L98 14L97 13z"/>
<path style="fill:#ffcfcf; stroke:none;" d="M98 13L99 14L98 13z"/>
<path style="fill:#ffdddd; stroke:none;" d="M99 13L100 14L99 13z"/>
<path style="fill:#fffafa; stroke:none;" d="M100 13L101 14L100 13z"/>
<path style="fill:#494949; stroke:none;" d="M29 14L30 15L29 14z"/>
<path style="fill:#696969; stroke:none;" d="M32 14L33 15L32 14z"/>
<path style="fill:#7b7b7b; stroke:none;" d="M73 14L74 15L73 14z"/>
<path style="fill:#fffefe; stroke:none;" d="M90 14L91 15L90 14z"/>
<path style="fill:#ffd1d1; stroke:none;" d="M91 14L92 15L91 14z"/>
<path style="fill:#ff8d8d; stroke:none;" d="M92 14L93 15L92 14z"/>
<path style="fill:#ff6363; stroke:none;" d="M93 14L94 15L93 14z"/>
<path style="fill:#ff5656; stroke:none;" d="M94.6667 14.3333L95.3333 14.6667L94.6667 14.3333z"/>
<path style="fill:#ff5858; stroke:none;" d="M96 14L97 15L96 14z"/>
<path style="fill:#ff5a5a; stroke:none;" d="M97 14L98 15L97 14z"/>
<path style="fill:#ff5656; stroke:none;" d="M98.6667 14.3333L99.3333 14.6667L98.6667 14.3333z"/>
<path style="fill:#ff5a5a; stroke:none;" d="M100 14L101 15L100 14z"/>
<path style="fill:#ff8080; stroke:none;" d="M101 14L102 15L101 14z"/>
<path style="fill:#ffbdbd; stroke:none;" d="M102 14L103 15L102 14z"/>
<path style="fill:#fff9f9; stroke:none;" d="M103 14L104 15L103 14z"/>
<path style="fill:#f4f4f4; stroke:none;" d="M29 15L30 16L29 15z"/>
<path style="fill:#8d8d8d; stroke:none;" d="M30 15L31 16L30 15z"/>
<path style="fill:#999999; stroke:none;" d="M31 15L32 16L31 15z"/>
<path style="fill:#fbfbfb; stroke:none;" d="M32 15L33 16L32 15z"/>
<path style="fill:#838383; stroke:none;" d="M73 15L73 32L74 32L73 15z"/>
<path style="fill:#ffe0e0; stroke:none;" d="M89 15L90 16L89 15z"/>
<path style="fill:#fe7676; stroke:none;" d="M90 15L91 16L90 15z"/>
<path style="fill:#ff5757; stroke:none;" d="M91 15L92 16L91 15z"/>
<path style="fill:#ff8686; stroke:none;" d="M92 15L93 16L92 15z"/>
<path style="fill:#ffb7b7; stroke:none;" d="M93 15L94 16L93 15z"/>
<path style="fill:#ffdfdf; stroke:none;" d="M94 15L95 16L94 15z"/>
<path style="fill:#fff5f5; stroke:none;" d="M95 15L96 16L95 15z"/>
<path style="fill:#fff8f8; stroke:none;" d="M98 15L99 16L98 15z"/>
<path style="fill:#ffe8e8; stroke:none;" d="M99 15L100 16L99 15z"/>
<path style="fill:#ffc2c2; stroke:none;" d="M100 15L101 16L100 15z"/>
<path style="fill:#ff9696; stroke:none;" d="M101 15L102 16L101 15z"/>
<path style="fill:#ff5c5c; stroke:none;" d="M102 15L103 16L102 15z"/>
<path style="fill:#ff6464; stroke:none;" d="M103 15L104 16L103 15z"/>
<path style="fill:#ffc5c5; stroke:none;" d="M104 15L105 16L104 15z"/>
<path style="fill:#ffc1c1; stroke:none;" d="M88 16L89 17L88 16z"/>
<path style="fill:#ff5b5b; stroke:none;" d="M89 16L90 17L89 16z"/>
<path style="fill:#fe8282; stroke:none;" d="M90 16L91 17L90 16z"/>
<path style="fill:#ffe1e1; stroke:none;" d="M91 16L92 17L91 16z"/>
<path style="fill:#fff0f0; stroke:none;" d="M102 16L103 17L102 16z"/>
<path style="fill:#ffa0a0; stroke:none;" d="M103 16L104 17L103 16z"/>
<path style="fill:#ff5757; stroke:none;" d="M104 16L105 17L104 16z"/>
<path style="fill:#fe9999; stroke:none;" d="M105 16L106 17L105 16z"/>
<path style="fill:#fffefe; stroke:none;" d="M106 16L107 17L106 16z"/>
<path style="fill:#ffcfcf; stroke:none;" d="M87 17L88 18L87 17z"/>
<path style="fill:#ff5959; stroke:none;" d="M88 17L89 18L88 17z"/>
<path style="fill:#fea2a2; stroke:none;" d="M89 17L90 18L89 17z"/>
<path style="fill:#fffdfd; stroke:none;" d="M90 17L91 18L90 17z"/>
<path style="fill:#ffc9c9; stroke:none;" d="M104 17L105 18L104 17z"/>
<path style="fill:#ff5a5a; stroke:none;" d="M105 17L106 18L105 17z"/>
<path style="fill:#fea4a4; stroke:none;" d="M106 17L107 18L106 17z"/>
<path style="fill:#fff1f1; stroke:none;" d="M86 18L87 19L86 18z"/>
<path style="fill:#ff5f5f; stroke:none;" d="M87 18L88 19L87 18z"/>
<path style="fill:#ff9393; stroke:none;" d="M88 18L89 19L88 18z"/>
<path style="fill:#ffc1c1; stroke:none;" d="M105 18L106 19L105 18z"/>
<path style="fill:#ff5656; stroke:none;" d="M106 18L107 19L106 18z"/>
<path style="fill:#ffcccc; stroke:none;" d="M107 18L108 19L107 18z"/>
<path style="fill:#a7a7a7; stroke:none;" d="M10 19L11 20L10 19z"/>
<path style="fill:#999999; stroke:none;" d="M11 19L11 20L17 20L11 19z"/>
<path style="fill:#e4e4e4; stroke:none;" d="M17 19L18 20L17 19z"/>
<path style="fill:#f4f4f4; stroke:none;" d="M20 19L21 20L20 19z"/>
<path style="fill:#999999; stroke:none;" d="M21 19L21 20L26 20L21 19z"/>
<path style="fill:#aeaeae; stroke:none;" d="M26 19L27 20L26 19z"/>
<path style="fill:#b7b7b7; stroke:none;" d="M27 19L28 20L27 19z"/>
<path style="fill:#a7a7a7; stroke:none;" d="M28 19L29 20L28 19z"/>
<path style="fill:#979797; stroke:none;" d="M29 19L30 20L29 19z"/>
<path style="fill:#878787; stroke:none;" d="M30 19L31 20L30 19z"/>
<path style="fill:#777777; stroke:none;" d="M31 19L32 20L31 19z"/>
<path style="fill:#a3a3a3; stroke:none;" d="M32 19L33 20L32 19z"/>
<path style="fill:#e7e7e7; stroke:none;" d="M36 19L37 20L36 19z"/>
<path style="fill:#b1b1b1; stroke:none;" d="M37 19L38 20L37 19z"/>
<path style="fill:#9f9f9f; stroke:none;" d="M38 19L39 20L38 19z"/>
<path style="fill:#8e8e8e; stroke:none;" d="M39 19L40 20L39 19z"/>
<path style="fill:#7d7d7d; stroke:none;" d="M40 19L41 20L40 19z"/>
<path style="fill:#757575; stroke:none;" d="M41 19L42 20L41 19z"/>
<path style="fill:#d7d7d7; stroke:none;" d="M44 19L45 20L44 19z"/>
<path style="fill:#717171; stroke:none;" d="M45 19L46 20L45 19z"/>
<path style="fill:#464646; stroke:none;" d="M46 19L47 20L46 19z"/>
<path style="fill:#333333; stroke:none;" d="M47 19L48 20L47 19z"/>
<path style="fill:#565656; stroke:none;" d="M48 19L49 20L48 19z"/>
<path style="fill:#b6b6b6; stroke:none;" d="M49 19L50 20L49 19z"/>
<path style="fill:#bababa; stroke:none;" d="M54 19L55 20L54 19z"/>
<path style="fill:#999999; stroke:none;" d="M55 19L55 20L61 20L55 19z"/>
<path style="fill:#dadada; stroke:none;" d="M61 19L62 20L61 19z"/>
<path style="fill:#a6a6a6; stroke:none;" d="M65 19L66 20L65 19z"/>
<path style="fill:#999999; stroke:none;" d="M66 19L66 20L70 20L66 19z"/>
<path style="fill:#a9a9a9; stroke:none;" d="M70 19L71 20L70 19z"/>
<path style="fill:#ffa0a0; stroke:none;" d="M86 19L87 20L86 19z"/>
<path style="fill:#ff6666; stroke:none;" d="M87 19L88 20L87 19z"/>
<path style="fill:#fff8f8; stroke:none;" d="M88 19L89 20L88 19z"/>
<path style="fill:#fe8e8e; stroke:none;" d="M106 19L107 20L106 19z"/>
<path style="fill:#ff7373; stroke:none;" d="M107 19L108 20L107 19z"/>
<path style="fill:#fffdfd; stroke:none;" d="M108 19L109 20L108 19z"/>
<path style="fill:#545454; stroke:none;" d="M10 20L11 21L10 20z"/>
<path style="fill:#010101; stroke:none;" d="M11 20L12 21L11 20z"/>
<path style="fill:#000000; stroke:none;" d="M12 20L18 35L19 35L15 20L12 20z"/>
<path style="fill:#020202; stroke:none;" d="M15 20L16 21L15 20z"/>
<path style="fill:#2f2f2f; stroke:none;" d="M16 20L17 21L16 20z"/>
<path style="fill:#cfcfcf; stroke:none;" d="M17 20L18 21L17 20z"/>
<path style="fill:#eeeeee; stroke:none;" d="M20 20L21 21L20 20z"/>
<path style="fill:#444444; stroke:none;" d="M21 20L22 21L21 20z"/>
<path style="fill:#040404; stroke:none;" d="M22 20L23 21L22 20z"/>
<path style="fill:#000000; stroke:none;" d="M23.6667 20.3333L24.3333 20.6667L23.6667 20.3333z"/>
<path style="fill:#080808; stroke:none;" d="M25 20L26 21L25 20z"/>
<path style="fill:#747474; stroke:none;" d="M26 20L27 21L26 20z"/>
<path style="fill:#262626; stroke:none;" d="M27 20L28 21L27 20z"/>
<path style="fill:#020202; stroke:none;" d="M28 20L29 21L28 20z"/>
<path style="fill:#000000; stroke:none;" d="M29 20C30.1104 24.6642 31.025 30.0071 28 34L28 35L34 35L34 34L32 20L29 20z"/>
<path style="fill:#5c5c5c; stroke:none;" d="M32 20L32 32L33 32L32 20z"/>
<path style="fill:#b6b6b6; stroke:none;" d="M36 20L37 21L36 20z"/>
<path style="fill:#181818; stroke:none;" d="M37 20L38 21L37 20z"/>
<path style="fill:#000000; stroke:none;" d="M38 20C40.1163 24.9944 41.1617 29.9245 37 34L37 35L44 35L44 34L38 20z"/>
<path style="fill:#040404; stroke:none;" d="M41 20L42 21L41 20z"/>
<path style="fill:#fefefe; stroke:none;" d="M42 20L43 21L42 20z"/>
<path style="fill:#7f7f7f; stroke:none;" d="M43 20L44 21L43 20z"/>
<path style="fill:#020202; stroke:none;" d="M44 20L45 21L44 20z"/>
<path style="fill:#000000; stroke:none;" d="M45 20L45 21C49.79 23.6413 50.191 29.788 47 34L47 35L53 35C49.8296 29.2992 53.3293 20.6643 45 20z"/>
<path style="fill:#919191; stroke:none;" d="M50 20L51 21L50 20z"/>
<path style="fill:#7f7f7f; stroke:none;" d="M54 20L55 21L54 20z"/>
<path style="fill:#060606; stroke:none;" d="M55 20L56 21L55 20z"/>
<path style="fill:#000000; stroke:none;" d="M56 20L62 35L63 35L60 20L56 20z"/>
<path style="fill:#282828; stroke:none;" d="M60 20L61 21L60 20z"/>
<path style="fill:#bdbdbd; stroke:none;" d="M61 20L62 21L61 20z"/>
<path style="fill:#5c5c5c; stroke:none;" d="M65 20L66 21L65 20z"/>
<path style="fill:#070707; stroke:none;" d="M66 20L67 21L66 20z"/>
<path style="fill:#000000; stroke:none;" d="M67.6667 20.3333L68.3333 20.6667L67.6667 20.3333z"/>
<path style="fill:#010101; stroke:none;" d="M69 20L70 21L69 20z"/>
<path style="fill:#5e5e5e; stroke:none;" d="M70 20L71 21L70 20z"/>
<path style="fill:#fff8f8; stroke:none;" d="M85 20L86 21L85 20z"/>
<path style="fill:#ff5c5c; stroke:none;" d="M86 20L87 21L86 20z"/>
<path style="fill:#ffb3b3; stroke:none;" d="M87 20L88 21L87 20z"/>
<path style="fill:#ffe1e1; stroke:none;" d="M106 20L107 21L106 20z"/>
<path style="fill:#ff5757; stroke:none;" d="M107 20L108 21L107 20z"/>
<path style="fill:#ffcfcf; stroke:none;" d="M108 20L109 21L108 20z"/>
<path style="fill:#d4d4d4; stroke:none;" d="M11 21L12 22L11 21z"/>
<path style="fill:#1c1c1c; stroke:none;" d="M12 21L13 22L12 21z"/>
<path style="fill:#7e7e7e; stroke:none;" d="M15 21L16 22L15 21z"/>
<path style="fill:#cecece; stroke:none;" d="M22 21L23 22L22 21z"/>
<path style="fill:#010101; stroke:none;" d="M23 21L24 22L23 21z"/>
<path style="fill:#202020; stroke:none;" d="M24 21L25 22L24 21z"/>
<path style="fill:#e1e1e1; stroke:none;" d="M25 21L26 22L25 21z"/>
<path style="fill:#e0e0e0; stroke:none;" d="M28 21L29 22L28 21z"/>
<path style="fill:#2b2b2b; stroke:none;" d="M29 21L30 22L29 21z"/>
<path style="fill:#fdfdfd; stroke:none;" d="M37 21L38 22L37 21z"/>
<path style="fill:#7f7f7f; stroke:none;" d="M38 21L39 22L38 21z"/>
<path style="fill:#030303; stroke:none;" d="M41 21L42 22L41 21z"/>
<path style="fill:#616161; stroke:none;" d="M42 21L43 22L42 21z"/>
<path style="fill:#353535; stroke:none;" d="M43 21L44 22L43 21z"/>
<path style="fill:#adadad; stroke:none;" d="M44 21L45 22L44 21z"/>
<path style="fill:#e1e1e1; stroke:none;" d="M45 21L46 22L45 21z"/>
<path style="fill:#dadada; stroke:none;" d="M46 21L47 22L46 21z"/>
<path style="fill:#5c5c5c; stroke:none;" d="M47 21L48 22L47 21z"/>
<path style="fill:#080808; stroke:none;" d="M50 21L51 22L50 21z"/>
<path style="fill:#e9e9e9; stroke:none;" d="M51 21L52 22L51 21M55 21L56 22L55 21z"/>
<path style="fill:#393939; stroke:none;" d="M56 21L57 22L56 21z"/>
<path style="fill:#515151; stroke:none;" d="M59 21L60 22L59 21z"/>
<path style="fill:#e4e4e4; stroke:none;" d="M66 21L67 22L66 21z"/>
<path style="fill:#131313; stroke:none;" d="M67 21L68 22L67 21z"/>
<path style="fill:#0f0f0f; stroke:none;" d="M68 21L69 22L68 21z"/>
<path style="fill:#c5c5c5; stroke:none;" d="M69 21L70 22L69 21z"/>
<path style="fill:#ffcfcf; stroke:none;" d="M85 21L86 22L85 21z"/>
<path style="fill:#ff5656; stroke:none;" d="M86 21L87 22L86 21z"/>
<path style="fill:#fff2f2; stroke:none;" d="M87 21L88 22L87 21z"/>
<path style="fill:#ff7878; stroke:none;" d="M107 21L108 22L107 21z"/>
<path style="fill:#ffa0a0; stroke:none;" d="M108 21L109 22L108 21z"/>
<path style="fill:#a4a4a4; stroke:none;" d="M12 22L13 23L12 22z"/>
<path style="fill:#323232; stroke:none;" d="M15 22L16 23L15 22z"/>
<path style="fill:#dfdfdf; stroke:none;" d="M22 22L23 23L22 22z"/>
<path style="fill:#000000; stroke:none;" d="M23 22L24 23L23 22z"/>
<path style="fill:#aaaaaa; stroke:none;" d="M24 22L25 23L24 22z"/>
<path style="fill:#a4a4a4; stroke:none;" d="M29 22L30 23L29 22z"/>
<path style="fill:#f7f7f7; stroke:none;" d="M38 22L39 23L38 22z"/>
<path style="fill:#060606; stroke:none;" d="M39 22L40 23L39 22z"/>
<path style="fill:#5b5b5b; stroke:none;" d="M42 22L43 23L42 22z"/>
<path style="fill:#fcfcfc; stroke:none;" d="M43 22L44 23L43 22z"/>
<path style="fill:#fdfdfd; stroke:none;" d="M47 22L48 23L47 22z"/>
<path style="fill:#2f2f2f; stroke:none;" d="M48 22L49 23L48 22z"/>
<path style="fill:#a2a2a2; stroke:none;" d="M51 22L52 23L51 22z"/>
<path style="fill:#d4d4d4; stroke:none;" d="M56 22L57 23L56 22z"/>
<path style="fill:#010101; stroke:none;" d="M57 22L58 23L57 22z"/>
<path style="fill:#0e0e0e; stroke:none;" d="M59 22L60 23L59 22z"/>
<path style="fill:#f3f3f3; stroke:none;" d="M60 22L61 23L60 22z"/>
<path style="fill:#f9f9f9; stroke:none;" d="M66 22L67 23L66 22z"/>
<path style="fill:#0b0b0b; stroke:none;" d="M67 22L68 23L67 22z"/>
<path style="fill:#8d8d8d; stroke:none;" d="M68 22L69 23L68 22z"/>
<path style="fill:#ffa0a0; stroke:none;" d="M85 22L86 23L85 22z"/>
<path style="fill:#ff7575; stroke:none;" d="M86 22L87 23L86 22z"/>
<path style="fill:#fea4a4; stroke:none;" d="M107 22L108 23L107 22z"/>
<path style="fill:#ff7171; stroke:none;" d="M108 22L109 23L108 22z"/>
<path style="fill:#f9f9f9; stroke:none;" d="M12 23L13 24L12 23z"/>
<path style="fill:#181818; stroke:none;" d="M13 23L14 24L13 23z"/>
<path style="fill:#c9c9c9; stroke:none;" d="M16 23L17 24L16 23z"/>
<path style="fill:#838383; stroke:none;" d="M22 23L23 24L22 23z"/>
<path style="fill:#212121; stroke:none;" d="M23 23L24 24L23 23z"/>
<path style="fill:#fcfcfc; stroke:none;" d="M24 23L25 24L24 23z"/>
<path style="fill:#bbbbbb; stroke:none;" d="M29 23L29 32L30 32L29 23z"/>
<path style="fill:#141414; stroke:none;" d="M39 23L39 32L40 32L39 23z"/>
<path style="fill:#030303; stroke:none;" d="M41 23L42 24L41 23z"/>
<path style="fill:#f5f5f5; stroke:none;" d="M42 23L43 24L42 23z"/>
<path style="fill:#838383; stroke:none;" d="M48 23L49 24L48 23z"/>
<path style="fill:#808080; stroke:none;" d="M51 23L52 24L51 23z"/>
<path style="fill:#414141; stroke:none;" d="M57 23L58 24L57 23z"/>
<path style="fill:#9a9a9a; stroke:none;" d="M60 23L61 24L60 23z"/>
<path style="fill:#ababab; stroke:none;" d="M66 23L67 24L66 23z"/>
<path style="fill:#0c0c0c; stroke:none;" d="M67 23L68 24L67 23z"/>
<path style="fill:#f1f1f1; stroke:none;" d="M68 23L69 24L68 23z"/>
<path style="fill:#ff8888; stroke:none;" d="M85 23L86 24L85 23z"/>
<path style="fill:#ff9595; stroke:none;" d="M86 23L87 24L86 23z"/>
<path style="fill:#ffc3c3; stroke:none;" d="M107 23L108 24L107 23z"/>
<path style="fill:#ff5a5a; stroke:none;" d="M108 23L109 24L108 23z"/>
<path style="fill:#fffefe; stroke:none;" d="M109 23L110 24L109 23z"/>
<path style="fill:#7d7d7d; stroke:none;" d="M13 24L14 25L13 24z"/>
<path style="fill:#626262; stroke:none;" d="M16 24L17 25L16 24z"/>
<path style="fill:#fcfcfc; stroke:none;" d="M21 24L22 25L21 24z"/>
<path style="fill:#1f1f1f; stroke:none;" d="M22 24L23 25L22 24z"/>
<path style="fill:#8e8e8e; stroke:none;" d="M23 24L24 25L23 24z"/>
<path style="fill:#040404; stroke:none;" d="M41 24L41 32L42 32L41 24z"/>
<path style="fill:#a0a0a0; stroke:none;" d="M48 24L49 25L48 24z"/>
<path style="fill:#686868; stroke:none;" d="M51 24L51 32L52 32L51 24z"/>
<path style="fill:#ababab; stroke:none;" d="M57 24L58 25L57 24z"/>
<path style="fill:#303030; stroke:none;" d="M60 24L61 25L60 24z"/>
<path style="fill:#444444; stroke:none;" d="M66 24L67 25L66 24z"/>
<path style="fill:#6a6a6a; stroke:none;" d="M67 24L68 25L67 24z"/>
<path style="fill:#fe7b7b; stroke:none;" d="M85 24L86 25L85 24z"/>
<path style="fill:#fea2a2; stroke:none;" d="M86 24L87 25L86 24z"/>
<path style="fill:#fffefe; stroke:none;" d="M90 24L91 25L90 24z"/>
<path style="fill:#ffadad; stroke:none;" d="M91 24L92 25L91 24z"/>
<path style="fill:#ff8080; stroke:none;" d="M92 24L93 25L92 24z"/>
<path style="fill:#ffb2b2; stroke:none;" d="M93 24L94 25L93 24z"/>
<path style="fill:#ffcfcf; stroke:none;" d="M100 24L101 25L100 24z"/>
<path style="fill:#ff8787; stroke:none;" d="M101 24L102 25L101 24z"/>
<path style="fill:#fe9797; stroke:none;" d="M102 24L103 25L102 24z"/>
<path style="fill:#fff3f3; stroke:none;" d="M103 24L104 25L103 24z"/>
<path style="fill:#ffd1d1; stroke:none;" d="M107 24L108 25L107 24z"/>
<path style="fill:#ff5656; stroke:none;" d="M108 24L108 30L109 30L108 24z"/>
<path style="fill:#fff5f5; stroke:none;" d="M109 24L110 25L109 24z"/>
<path style="fill:#e5e5e5; stroke:none;" d="M13 25L14 26L13 25z"/>
<path style="fill:#050505; stroke:none;" d="M14 25L15 26L14 25z"/>
<path style="fill:#090909; stroke:none;" d="M16 25L17 26L16 25z"/>
<path style="fill:#eeeeee; stroke:none;" d="M17 25L18 26L17 25z"/>
<path style="fill:#b0b0b0; stroke:none;" d="M21 25L22 26L21 25z"/>
<path style="fill:#0d0d0d; stroke:none;" d="M22 25L23 26L22 25z"/>
<path style="fill:#f0f0f0; stroke:none;" d="M23 25L24 26L23 25z"/>
<path style="fill:#a3a3a3; stroke:none;" d="M48 25L48 32L49 32L48 25z"/>
<path style="fill:#fbfbfb; stroke:none;" d="M57 25L58 26L57 25z"/>
<path style="fill:#1b1b1b; stroke:none;" d="M58 25L59 26L58 25z"/>
<path style="fill:#cacaca; stroke:none;" d="M61 25L62 26L61 25z"/>
<path style="fill:#dddddd; stroke:none;" d="M65 25L66 26L65 25z"/>
<path style="fill:#020202; stroke:none;" d="M66 25L67 26L66 25z"/>
<path style="fill:#d2d2d2; stroke:none;" d="M67 25L68 26L67 25z"/>
<path style="fill:#ff7070; stroke:none;" d="M85 25L86 26L85 25z"/>
<path style="fill:#ffadad; stroke:none;" d="M86 25L87 26L86 25z"/>
<path style="fill:#fffafa; stroke:none;" d="M88 25L89 26L88 25z"/>
<path style="fill:#ffcdcd; stroke:none;" d="M89 25L90 26L89 25z"/>
<path style="fill:#ff9e9e; stroke:none;" d="M90 25L91 26L90 25z"/>
<path style="fill:#ff5959; stroke:none;" d="M91 25L92 26L91 25z"/>
<path style="fill:#ff9494; stroke:none;" d="M92 25L93 26L92 25z"/>
<path style="fill:#ff5757; stroke:none;" d="M93 25L94 26L93 25z"/>
<path style="fill:#ffcbcb; stroke:none;" d="M94 25L95 26L94 25z"/>
<path style="fill:#fff2f2; stroke:none;" d="M99 25L100 26L99 25z"/>
<path style="fill:#ff5c5c; stroke:none;" d="M100 25L101 26L100 25z"/>
<path style="fill:#fe8686; stroke:none;" d="M101 25L102 26L101 25z"/>
<path style="fill:#ff6666; stroke:none;" d="M102 25L103 26L102 25z"/>
<path style="fill:#fe8282; stroke:none;" d="M103 25L104 26L103 25z"/>
<path style="fill:#ffc2c2; stroke:none;" d="M104 25L105 26L104 25z"/>
<path style="fill:#fff0f0; stroke:none;" d="M105 25L106 26L105 25z"/>
<path style="fill:#ffdcdc; stroke:none;" d="M107 25L108 26L107 25z"/>
<path style="fill:#ffe9e9; stroke:none;" d="M109 25L110 26L109 25z"/>
<path style="fill:#535353; stroke:none;" d="M14 26L15 27L14 26z"/>
<path style="fill:#919191; stroke:none;" d="M17 26L18 27L17 26z"/>
<path style="fill:#494949; stroke:none;" d="M21 26L22 27L21 26z"/>
<path style="fill:#6d6d6d; stroke:none;" d="M22 26L23 27L22 26z"/>
<path style="fill:#808080; stroke:none;" d="M58 26L59 27L58 26z"/>
<path style="fill:#626262; stroke:none;" d="M61 26L62 27L61 26z"/>
<path style="fill:#777777; stroke:none;" d="M65 26L66 27L65 26z"/>
<path style="fill:#404040; stroke:none;" d="M66 26L67 27L66 26z"/>
<path style="fill:#ff6e6e; stroke:none;" d="M85 26L85 30L86 30L85 26z"/>
<path style="fill:#ffaeae; stroke:none;" d="M86 26L87 27L86 26z"/>
<path style="fill:#ffdddd; stroke:none;" d="M87 26L88 27L87 26z"/>
<path style="fill:#ff6a6a; stroke:none;" d="M88 26L89 27L88 26z"/>
<path style="fill:#ff5656; stroke:none;" d="M89 26L90 27L89 26z"/>
<path style="fill:#ff5b5b; stroke:none;" d="M90 26L91 27L90 26z"/>
<path style="fill:#ff7575; stroke:none;" d="M91 26L92 27L91 26z"/>
<path style="fill:#ffffff; stroke:none;" d="M92 26L92 34L93 34L92 26z"/>
<path style="fill:#fe6c6c; stroke:none;" d="M93 26L94 27L93 26z"/>
<path style="fill:#ffacac; stroke:none;" d="M94 26L95 27L94 26z"/>
<path style="fill:#ffdcdc; stroke:none;" d="M99 26L100 27L99 26z"/>
<path style="fill:#ff5656; stroke:none;" d="M100 26L101 36L102 36L100 26z"/>
<path style="fill:#ffe8e8; stroke:none;" d="M101 26L102 27L101 26z"/>
<path style="fill:#fea2a2; stroke:none;" d="M102 26L103 27L102 26z"/>
<path style="fill:#ff5858; stroke:none;" d="M103 26L104 27L103 26z"/>
<path style="fill:#ff5656; stroke:none;" d="M104 26L105 27L104 26z"/>
<path style="fill:#ff5c5c; stroke:none;" d="M105 26L106 27L105 26z"/>
<path style="fill:#ffbbbb; stroke:none;" d="M106 26L107 27L106 26z"/>
<path style="fill:#ffdede; stroke:none;" d="M107 26L108 27L107 26z"/>
<path style="fill:#ffe7e7; stroke:none;" d="M109 26L109 30L110 30L109 26z"/>
<path style="fill:#bebebe; stroke:none;" d="M14 27L15 28L14 27z"/>
<path style="fill:#292929; stroke:none;" d="M17 27L18 28L17 27z"/>
<path style="fill:#fefefe; stroke:none;" d="M18 27L19 28L18 27z"/>
<path style="fill:#dddddd; stroke:none;" d="M20 27L21 28L20 27z"/>
<path style="fill:#040404; stroke:none;" d="M21 27L22 28L21 27z"/>
<path style="fill:#d9d9d9; stroke:none;" d="M22 27L23 28L22 27z"/>
<path style="fill:#e5e5e5; stroke:none;" d="M58 27L59 28L58 27z"/>
<path style="fill:#050505; stroke:none;" d="M59 27L60 28L59 27z"/>
<path style="fill:#0a0a0a; stroke:none;" d="M61 27L62 28L61 27z"/>
<path style="fill:#efefef; stroke:none;" d="M62 27L63 28L62 27z"/>
<path style="fill:#f9f9f9; stroke:none;" d="M64 27L65 28L64 27z"/>
<path style="fill:#171717; stroke:none;" d="M65 27L66 28L65 27z"/>
<path style="fill:#acacac; stroke:none;" d="M66 27L67 28L66 27z"/>
<path style="fill:#ffacac; stroke:none;" d="M86 27L87 28L86 27z"/>
<path style="fill:#fe6c6c; stroke:none;" d="M87 27L88 28L87 27z"/>
<path style="fill:#fe8383; stroke:none;" d="M88 27L89 28L88 27z"/>
<path style="fill:#ffe9e9; stroke:none;" d="M89 27L90 28L89 27z"/>
<path style="fill:#ffa8a8; stroke:none;" d="M90 27L90 33L91 33L90 27z"/>
<path style="fill:#fe7676; stroke:none;" d="M91 27L91 34L92 34L91 27z"/>
<path style="fill:#ff6e6e; stroke:none;" d="M93 27L93 34L94 34L93 27z"/>
<path style="fill:#ffabab; stroke:none;" d="M94 27L94 34L95 34L94 27z"/>
<path style="fill:#ffdbdb; stroke:none;" d="M99 27L99 34L100 34L99 27z"/>
<path style="fill:#ffeaea; stroke:none;" d="M101 27L101 34L102 34L101 27z"/>
<path style="fill:#fea4a4; stroke:none;" d="M102 27L102 34L103 34L102 27z"/>
<path style="fill:#ff7979; stroke:none;" d="M103 27L103 33L104 33L103 27z"/>
<path style="fill:#fff4f4; stroke:none;" d="M104 27L105 28L104 27z"/>
<path style="fill:#fea6a6; stroke:none;" d="M105 27L106 28L105 27z"/>
<path style="fill:#ff5656; stroke:none;" d="M106 27L107 28L106 27z"/>
<path style="fill:#ffc2c2; stroke:none;" d="M107 27L108 28L107 27z"/>
<path style="fill:#fefefe; stroke:none;" d="M14 28L15 29L14 28z"/>
<path style="fill:#2a2a2a; stroke:none;" d="M15 28L16 29L15 28z"/>
<path style="fill:#bdbdbd; stroke:none;" d="M18 28L19 29L18 28z"/>
<path style="fill:#747474; stroke:none;" d="M20 28L21 29L20 28z"/>
<path style="fill:#494949; stroke:none;" d="M21 28L22 29L21 28z"/>
<path style="fill:#555555; stroke:none;" d="M59 28L60 29L59 28z"/>
<path style="fill:#929292; stroke:none;" d="M62 28L63 29L62 28z"/>
<path style="fill:#a6a6a6; stroke:none;" d="M64 28L65 29L64 28z"/>
<path style="fill:#1c1c1c; stroke:none;" d="M65 28L66 29L65 28z"/>
<path style="fill:#fbfbfb; stroke:none;" d="M66 28L67 29L66 28z"/>
<path style="fill:#ff7a7a; stroke:none;" d="M86 28L87 29L86 28z"/>
<path style="fill:#ff5858; stroke:none;" d="M87 28L88 29L87 28z"/>
<path style="fill:#ffefef; stroke:none;" d="M88 28L89 29L88 28z"/>
<path style="fill:#ffffff; stroke:none;" d="M89 28L89 33L90 33L89 28M104 28L104 33L105 33L106 28L104 28z"/>
<path style="fill:#fe7676; stroke:none;" d="M106 28L107 29L106 28z"/>
<path style="fill:#ff7b7b; stroke:none;" d="M107 28L108 29L107 28z"/>
<path style="fill:#919191; stroke:none;" d="M15 29L16 30L15 29z"/>
<path style="fill:#545454; stroke:none;" d="M18 29L19 30L18 29z"/>
<path style="fill:#f6f6f6; stroke:none;" d="M19 29L20 30L19 29z"/>
<path style="fill:#121212; stroke:none;" d="M20 29L21 30L20 29z"/>
<path style="fill:#b7b7b7; stroke:none;" d="M21 29L22 30L21 29z"/>
<path style="fill:#bcbcbc; stroke:none;" d="M59 29L60 30L59 29z"/>
<path style="fill:#292929; stroke:none;" d="M62 29L63 30L62 29z"/>
<path style="fill:#fefefe; stroke:none;" d="M63 29L64 30L63 29z"/>
<path style="fill:#393939; stroke:none;" d="M64 29L65 30L64 29z"/>
<path style="fill:#848484; stroke:none;" d="M65 29L66 30L65 29z"/>
<path style="fill:#ff5c5c; stroke:none;" d="M86 29L87 30L86 29z"/>
<path style="fill:#fe6d6d; stroke:none;" d="M87 29L88 30L87 29z"/>
<path style="fill:#ff9a9a; stroke:none;" d="M106 29L107 30L106 29z"/>
<path style="fill:#ff6464; stroke:none;" d="M107 29L108 30L107 29z"/>
<path style="fill:#f0f0f0; stroke:none;" d="M15 30L16 31L15 30z"/>
<path style="fill:#0b0b0b; stroke:none;" d="M16 30L17 31L16 30z"/>
<path style="fill:#040404; stroke:none;" d="M18 30L19 31L18 30z"/>
<path style="fill:#7f7f7f; stroke:none;" d="M19 30L20 31L19 30z"/>
<path style="fill:#252525; stroke:none;" d="M20 30L21 31L20 30z"/>
<path style="fill:#fdfdfd; stroke:none;" d="M21 30L22 31L21 30z"/>
<path style="fill:#fefefe; stroke:none;" d="M59 30L60 31L59 30z"/>
<path style="fill:#262626; stroke:none;" d="M60 30L61 31L60 30z"/>
<path style="fill:#919191; stroke:none;" d="M63 30L64 31L63 30z"/>
<path style="fill:#060606; stroke:none;" d="M64 30L65 31L64 30z"/>
<path style="fill:#e8e8e8; stroke:none;" d="M65 30L66 31L65 30z"/>
<path style="fill:#ff9898; stroke:none;" d="M85 30L86 31L85 30z"/>
<path style="fill:#ff7e7e; stroke:none;" d="M86 30L87 31L86 30z"/>
<path style="fill:#ff7171; stroke:none;" d="M87 30L88 31L87 30z"/>
<path style="fill:#ffa0a0; stroke:none;" d="M106 30L107 31L106 30z"/>
<path style="fill:#ff7171; stroke:none;" d="M107 30L108 31L107 30z"/>
<path style="fill:#ff7e7e; stroke:none;" d="M108 30L109 31L108 30z"/>
<path style="fill:#fff6f6; stroke:none;" d="M109 30L110 31L109 30z"/>
<path style="fill:#636363; stroke:none;" d="M16 31L17 32L16 31z"/>
<path style="fill:#020202; stroke:none;" d="M19 31L20 32L19 31z"/>
<path style="fill:#919191; stroke:none;" d="M20 31L21 32L20 31z"/>
<path style="fill:#8c8c8c; stroke:none;" d="M60 31L61 32L60 31z"/>
<path style="fill:#040404; stroke:none;" d="M63 31L64 32L63 31z"/>
<path style="fill:#5b5b5b; stroke:none;" d="M64 31L65 32L64 31z"/>
<path style="fill:#ffc0c0; stroke:none;" d="M86 31L87 32L86 31z"/>
<path style="fill:#ff5f5f; stroke:none;" d="M87 31L88 32L87 31z"/>
<path style="fill:#fffbfb; stroke:none;" d="M88 31L89 32L88 31z"/>
<path style="fill:#ff8989; stroke:none;" d="M106 31L107 32L106 31z"/>
<path style="fill:#ff8f8f; stroke:none;" d="M107 31L108 32L107 31z"/>
<path style="fill:#cecece; stroke:none;" d="M16 32L17 33L16 32z"/>
<path style="fill:#080808; stroke:none;" d="M19 32L20 33L19 32z"/>
<path style="fill:#eeeeee; stroke:none;" d="M20 32L21 33L20 32z"/>
<path style="fill:#b0b0b0; stroke:none;" d="M29 32L30 33L29 32z"/>
<path style="fill:#484848; stroke:none;" d="M32 32L33 33L32 32z"/>
<path style="fill:#fdfdfd; stroke:none;" d="M38 32L39 33L38 32z"/>
<path style="fill:#0b0b0b; stroke:none;" d="M39 32L40 33L39 32z"/>
<path style="fill:#010101; stroke:none;" d="M41 32L42 33L41 32z"/>
<path style="fill:#efefef; stroke:none;" d="M42 32L43 33L42 32z"/>
<path style="fill:#989898; stroke:none;" d="M48 32L49 33L48 32z"/>
<path style="fill:#585858; stroke:none;" d="M51 32L52 33L51 32z"/>
<path style="fill:#ececec; stroke:none;" d="M60 32L61 33L60 32z"/>
<path style="fill:#080808; stroke:none;" d="M61 32L62 33L61 32z"/>
<path style="fill:#c7c7c7; stroke:none;" d="M64 32L65 33L64 32z"/>
<path style="fill:#787878; stroke:none;" d="M73 32L74 33L73 32z"/>
<path style="fill:#808080; stroke:none;" d="M76 32L77 33L76 32z"/>
<path style="fill:#ffecec; stroke:none;" d="M86 32L87 33L86 32z"/>
<path style="fill:#ff5858; stroke:none;" d="M87 32L88 33L87 32z"/>
<path style="fill:#ffafaf; stroke:none;" d="M88 32L89 33L88 32z"/>
<path style="fill:#ffdbdb; stroke:none;" d="M105 32L106 33L105 32z"/>
<path style="fill:#ff5858; stroke:none;" d="M106 32L107 33L106 32z"/>
<path style="fill:#ffc9c9; stroke:none;" d="M107 32L108 33L107 32z"/>
<path style="fill:#343434; stroke:none;" d="M17 33L18 34L17 33z"/>
<path style="fill:#575757; stroke:none;" d="M19 33L20 34L19 33z"/>
<path style="fill:#f6f6f6; stroke:none;" d="M27 33L28 34L27 33z"/>
<path style="fill:#d9d9d9; stroke:none;" d="M28 33L29 34L28 33z"/>
<path style="fill:#4b4b4b; stroke:none;" d="M29 33L30 34L29 33z"/>
<path style="fill:#060606; stroke:none;" d="M32 33L33 34L32 33z"/>
<path style="fill:#8e8e8e; stroke:none;" d="M33 33L34 34L33 33z"/>
<path style="fill:#e5e5e5; stroke:none;" d="M34 33L35 34L34 33z"/>
<path style="fill:#fcfcfc; stroke:none;" d="M36 33L37 34L36 33z"/>
<path style="fill:#e6e6e6; stroke:none;" d="M37 33L38 34L37 33z"/>
<path style="fill:#8f8f8f; stroke:none;" d="M38 33L39 34L38 33z"/>
<path style="fill:#545454; stroke:none;" d="M42 33L43 34L42 33z"/>
<path style="fill:#d1d1d1; stroke:none;" d="M43 33L44 34L43 33z"/>
<path style="fill:#f9f9f9; stroke:none;" d="M44 33L45 34L44 33z"/>
<path style="fill:#f3f3f3; stroke:none;" d="M46 33L47 34L46 33z"/>
<path style="fill:#d2d2d2; stroke:none;" d="M47 33L48 34L47 33z"/>
<path style="fill:#3a3a3a; stroke:none;" d="M48 33L49 34L48 33z"/>
<path style="fill:#0d0d0d; stroke:none;" d="M51 33L52 34L51 33z"/>
<path style="fill:#a3a3a3; stroke:none;" d="M52 33L53 34L52 33z"/>
<path style="fill:#ededed; stroke:none;" d="M53 33L54 34L53 33z"/>
<path style="fill:#5c5c5c; stroke:none;" d="M61 33L62 34L61 33z"/>
<path style="fill:#313131; stroke:none;" d="M63 33L64 34L63 33z"/>
<path style="fill:#f1f1f1; stroke:none;" d="M71 33L72 34L71 33z"/>
<path style="fill:#c8c8c8; stroke:none;" d="M72 33L73 34L72 33z"/>
<path style="fill:#252525; stroke:none;" d="M73 33L74 34L73 33z"/>
<path style="fill:#171717; stroke:none;" d="M76 33L77 34L76 33z"/>
<path style="fill:#aeaeae; stroke:none;" d="M77 33L78 34L77 33z"/>
<path style="fill:#efefef; stroke:none;" d="M78 33L79 34L78 33z"/>
<path style="fill:#ffb2b2; stroke:none;" d="M87 33L88 34L87 33z"/>
<path style="fill:#ff5757; stroke:none;" d="M88 33L89 34L88 33z"/>
<path style="fill:#ff7777; stroke:none;" d="M89 33L90 34L89 33z"/>
<path style="fill:#ff7575; stroke:none;" d="M90 33L91 34L90 33z"/>
<path style="fill:#ff6565; stroke:none;" d="M103.333 33.6667L103.667 34.3333L103.333 33.6667z"/>
<path style="fill:#ff8585; stroke:none;" d="M104 33L105 34L104 33z"/>
<path style="fill:#ff5b5b; stroke:none;" d="M105 33L106 34L105 33z"/>
<path style="fill:#ff8787; stroke:none;" d="M106 33L107 34L106 33z"/>
<path style="fill:#fffefe; stroke:none;" d="M107 33L108 34L107 33z"/>
<path style="fill:#9c9c9c; stroke:none;" d="M17 34L18 35L17 34z"/>
<path style="fill:#b0b0b0; stroke:none;" d="M19 34L20 35L19 34z"/>
<path style="fill:#787878; stroke:none;" d="M27 34L28 35L27 34z"/>
<path style="fill:#141414; stroke:none;" d="M34 34L35 35L34 34z"/>
<path style="fill:#cfcfcf; stroke:none;" d="M36 34L37 35L36 34z"/>
<path style="fill:#a3a3a3; stroke:none;" d="M44 34L45 35L44 34z"/>
<path style="fill:#484848; stroke:none;" d="M46 34L47 35L46 34z"/>
<path style="fill:#2c2c2c; stroke:none;" d="M53 34L54 35L53 34z"/>
<path style="fill:#c3c3c3; stroke:none;" d="M61 34L62 35L61 34z"/>
<path style="fill:#9d9d9d; stroke:none;" d="M63 34L64 35L63 34z"/>
<path style="fill:#343434; stroke:none;" d="M71 34L72 35L71 34z"/>
<path style="fill:#484848; stroke:none;" d="M78 34L79 35L78 34z"/>
<path style="fill:#ffd6d6; stroke:none;" d="M88 34L89 35L88 34z"/>
<path style="fill:#ff9494; stroke:none;" d="M89 34L90 35L89 34z"/>
<path style="fill:#fe7171; stroke:none;" d="M90 34L91 35L90 34z"/>
<path style="fill:#ff6262; stroke:none;" d="M91 34L92 35L91 34z"/>
<path style="fill:#ffcbcb; stroke:none;" d="M92 34L93 35L92 34z"/>
<path style="fill:#fe5d5d; stroke:none;" d="M93 34L94 35L93 34z"/>
<path style="fill:#ffb9b9; stroke:none;" d="M94 34L95 35L94 34z"/>
<path style="fill:#ffe8e8; stroke:none;" d="M99 34L100 35L99 34z"/>
<path style="fill:#ffb5b5; stroke:none;" d="M101 34L102 35L101 34z"/>
<path style="fill:#ff7f7f; stroke:none;" d="M102 34L103 35L102 34z"/>
<path style="fill:#ff8a8a; stroke:none;" d="M104 34L105 35L104 34z"/>
<path style="fill:#ffc1c1; stroke:none;" d="M105 34L106 35L105 34z"/>
<path style="fill:#fffdfd; stroke:none;" d="M106 34L107 35L106 34z"/>
<path style="fill:#fafafa; stroke:none;" d="M17 35L18 36L17 35z"/>
<path style="fill:#dddddd; stroke:none;" d="M18 35L19 36L18 35z"/>
<path style="fill:#fbfbfb; stroke:none;" d="M19 35L20 36L19 35z"/>
<path style="fill:#aeaeae; stroke:none;" d="M61 35L62 36L61 35z"/>
<path style="fill:#161616; stroke:none;" d="M62 35L63 36L62 35z"/>
<path style="fill:#f6f6f6; stroke:none;" d="M63 35L64 36L63 35z"/>
<path style="fill:#fff4f4; stroke:none;" d="M90 35L91 36L90 35z"/>
<path style="fill:#ff7777; stroke:none;" d="M91 35L92 36L91 35z"/>
<path style="fill:#ff5656; stroke:none;" d="M92 35L93 36L92 35z"/>
<path style="fill:#ff7a7a; stroke:none;" d="M93 35L94 36L93 35z"/>
<path style="fill:#fff6f6; stroke:none;" d="M94 35L95 36L94 35z"/>
<path style="fill:#ff9f9f; stroke:none;" d="M100 35L101 36L100 35z"/>
<path style="fill:#fe6262; stroke:none;" d="M102 35L103 36L102 35z"/>
<path style="fill:#ffdada; stroke:none;" d="M103 35L104 36L103 35z"/>
<path style="fill:#fefefe; stroke:none;" d="M60 36L61 37L60 36z"/>
<path style="fill:#393939; stroke:none;" d="M61 36L62 37L61 36z"/>
<path style="fill:#8d8d8d; stroke:none;" d="M62 36L63 37L62 36z"/>
<path style="fill:#fffefe; stroke:none;" d="M91 36L92 37L91 36z"/>
<path style="fill:#fff2f2; stroke:none;" d="M92 36L93 37L92 36z"/>
<path style="fill:#fff7f7; stroke:none;" d="M101 36L102 37L101 36z"/>
<path style="fill:#fffcfc; stroke:none;" d="M102 36L103 37L102 36z"/>
<path style="fill:#aaaaaa; stroke:none;" d="M60 37L61 38L60 37z"/>
<path style="fill:#191919; stroke:none;" d="M61 37L62 38L61 37z"/>
<path style="fill:#f5f5f5; stroke:none;" d="M62 37L63 38L62 37z"/>
<path style="fill:#fbfbfb; stroke:none;" d="M54 38L55 39L54 38z"/>
<path style="fill:#737373; stroke:none;" d="M55 38L56 39L55 38z"/>
<path style="fill:#5b5b5b; stroke:none;" d="M56 38L57 39L56 38z"/>
<path style="fill:#d5d5d5; stroke:none;" d="M57 38L58 39L57 38z"/>
<path style="fill:#efefef; stroke:none;" d="M59 38L60 39L59 38z"/>
<path style="fill:#1d1d1d; stroke:none;" d="M60 38L61 39L60 38z"/>
<path style="fill:#959595; stroke:none;" d="M61 38L62 39L61 38z"/>
<path style="fill:#adadad; stroke:none;" d="M54 39L55 40L54 39z"/>
<path style="fill:#000000; stroke:none;" d="M55 39L58 41L55 39z"/>
<path style="fill:#171717; stroke:none;" d="M57 39L58 40L57 39z"/>
<path style="fill:#e2e2e2; stroke:none;" d="M58 39L59 40L58 39z"/>
<path style="fill:#505050; stroke:none;" d="M59 39L60 40L59 39z"/>
<path style="fill:#454545; stroke:none;" d="M60 39L61 40L60 39z"/>
<path style="fill:#fcfcfc; stroke:none;" d="M61 39L62 40L61 39z"/>
<path style="fill:#b5b5b5; stroke:none;" d="M54 40L55 41L54 40z"/>
<path style="fill:#0e0e0e; stroke:none;" d="M58 40L59 41L58 40z"/>
<path style="fill:#212121; stroke:none;" d="M59 40L60 41L59 40z"/>
<path style="fill:#ebebeb; stroke:none;" d="M60 40L61 41L60 40z"/>
<path style="fill:#8b8b8b; stroke:none;" d="M55 41L56 42L55 41z"/>
<path style="fill:#292929; stroke:none;" d="M56 41L57 42L56 41z"/>
<path style="fill:#202020; stroke:none;" d="M57 41L58 42L57 41z"/>
<path style="fill:#656565; stroke:none;" d="M58 41L59 42L58 41z"/>
<path style="fill:#eeeeee; stroke:none;" d="M59 41L60 42L59 41z"/>
</svg>
