<?xml version="1.0" encoding="UTF-8" standalone="no"?>
<svg
   xmlns:dc="http://purl.org/dc/elements/1.1/"
   xmlns:cc="http://creativecommons.org/ns#"
   xmlns:rdf="http://www.w3.org/1999/02/22-rdf-syntax-ns#"
   xmlns:svg="http://www.w3.org/2000/svg"
   xmlns="http://www.w3.org/2000/svg"
   xmlns:sodipodi="http://sodipodi.sourceforge.net/DTD/sodipodi-0.dtd"
   xmlns:inkscape="http://www.inkscape.org/namespaces/inkscape"
   id="vinyl"
   height="50"
   width="120"
   version="1.0"
   inkscape:version="0.48.4 r9939"
   sodipodi:docname="vinyl.svg">
  <metadata
     id="metadata4181">
    <rdf:RDF>
      <cc:Work
         rdf:about="">
        <dc:format>image/svg+xml</dc:format>
        <dc:type
           rdf:resource="http://purl.org/dc/dcmitype/StillImage" />
        <dc:title></dc:title>
      </cc:Work>
    </rdf:RDF>
  </metadata>
  <defs
     id="defs4179" />
  <sodipodi:namedview
     pagecolor="#ffffff"
     bordercolor="#666666"
     borderopacity="1"
     objecttolerance="10"
     gridtolerance="10"
     guidetolerance="10"
     inkscape:pageopacity="0"
     inkscape:pageshadow="2"
     inkscape:window-width="640"
     inkscape:window-height="480"
     id="namedview4177"
     showgrid="false"
     inkscape:zoom="2.3833333"
     inkscape:cx="60"
     inkscape:cy="25"
     inkscape:window-x="0"
     inkscape:window-y="0"
     inkscape:window-maximized="0"
     inkscape:current-layer="vinyl" />
  <g
     id="g4167">
    <g
       style="font-size:32px;text-anchor:middle;font-family:Georgia"
       id="text4169">
      <path
         d="m 26.78125,20.546875 c -0.468766,0.08335 -0.914078,0.252618 -1.335938,0.507812 -0.421889,0.255223 -0.783868,0.705743 -1.085937,1.351563 -0.614597,1.395845 -1.250013,2.851572 -1.90625,4.367187 -0.656261,1.515632 -1.338552,3.106776 -2.046875,4.773438 -0.208343,0.47917 -0.429697,1.046877 -0.664063,1.703125 -0.234384,0.656251 -0.450529,1.286459 -0.648437,1.890625 l -1.21875,0 C 16.88541,32.692711 15.973953,30.460942 15.140625,28.445312 14.307288,26.429696 13.442705,24.364594 12.546875,22.25 12.33854,21.770847 12.002603,21.398451 11.539063,21.132812 11.07552,20.867202 10.609375,20.697931 10.140625,20.625 l 0,-1.03125 7.125,0 0,1.09375 c -0.312507,0.01043 -0.703131,0.07553 -1.171875,0.195312 -0.468755,0.119806 -0.70313,0.283868 -0.703125,0.492188 -5e-6,0.03126 0.02604,0.111993 0.07813,0.242187 0.05208,0.130222 0.104162,0.278659 0.15625,0.445313 0.427078,1.062512 1.031244,2.546885 1.8125,4.453125 0.781242,1.906257 1.416658,3.442713 1.90625,4.609375 0.374991,-0.895829 0.846344,-2.010411 1.414062,-3.34375 0.567698,-1.333325 1.179676,-2.822907 1.835938,-4.46875 0.104154,-0.281238 0.203113,-0.544259 0.296875,-0.789063 0.09374,-0.244778 0.140612,-0.492174 0.140625,-0.742187 -1.3e-5,-0.17707 -0.08595,-0.335924 -0.257813,-0.476563 -0.171887,-0.140611 -0.377616,-0.263006 -0.617187,-0.367187 -0.239595,-0.104152 -0.47397,-0.182277 -0.703125,-0.234375 -0.229177,-0.05207 -0.416677,-0.08853 -0.5625,-0.109375 l 0,-1 5.890625,0 z"
         style="font-size:32px;text-anchor:middle;font-family:Georgia"
         id="path4184" />
      <path
         d="m 34.921875,35 -7.453125,0 0,-1.03125 c 0.239582,-0.02083 0.486978,-0.04167 0.742187,-0.0625 0.255207,-0.02083 0.476561,-0.0625 0.664063,-0.125 0.291664,-0.09375 0.507809,-0.257811 0.648437,-0.492188 0.140622,-0.234373 0.210935,-0.53906 0.210938,-0.914062 l 0,-9.515625 c -3e-6,-0.333321 -0.07552,-0.638008 -0.226563,-0.914063 C 29.356768,21.669284 29.14583,21.437514 28.875,21.25 28.677081,21.125014 28.390623,21.018243 28.015625,20.929687 27.640624,20.84116 27.296874,20.786473 26.984375,20.765625 l 0,-1.015625 5.4375,-0.34375 0.21875,0.21875 0,12.5625 c -6e-6,0.364586 0.07031,0.666669 0.210937,0.90625 0.140619,0.239585 0.361973,0.416668 0.664063,0.53125 0.229159,0.09375 0.453117,0.169272 0.671875,0.226562 0.218742,0.05729 0.463533,0.09636 0.734375,0.117188 z m -1.96875,-21.671875 c -7e-6,0.593771 -0.195319,1.112 -0.585938,1.554688 -0.39063,0.442728 -0.872401,0.664081 -1.445312,0.664062 -0.531254,1.9e-5 -0.992191,-0.210918 -1.382813,-0.632812 -0.390627,-0.421855 -0.58594,-0.903625 -0.585937,-1.445313 -3e-6,-0.572895 0.19531,-1.072894 0.585937,-1.5 0.390622,-0.42706 0.851559,-0.640601 1.382813,-0.640625 0.593745,2.4e-5 1.080723,0.200544 1.460937,0.601563 0.380202,0.401064 0.570306,0.867209 0.570313,1.398437 z"
         style="font-size:32px;text-anchor:middle;font-family:Georgia"
         id="path4186" />
      <path
         d="m 53.828125,35 -7.546875,0 0,-1.03125 c 0.239573,-0.02083 0.502593,-0.04167 0.789062,-0.0625 0.286447,-0.02083 0.523426,-0.0625 0.710938,-0.125 0.291654,-0.09375 0.5078,-0.257811 0.648437,-0.492188 0.140613,-0.234373 0.210925,-0.53906 0.210938,-0.914062 l 0,-7.921875 c -1.3e-5,-1.093738 -0.257825,-1.937488 -0.773438,-2.53125 -0.515636,-0.593736 -1.14324,-0.890611 -1.882812,-0.890625 -0.552093,1.4e-5 -1.057301,0.08595 -1.515625,0.257812 -0.458342,0.171889 -0.864591,0.382826 -1.21875,0.632813 -0.343757,0.239596 -0.617194,0.497408 -0.820313,0.773437 -0.203131,0.276054 -0.351568,0.497408 -0.445312,0.664063 l 0,8.859375 c -6e-6,0.354169 0.07291,0.645835 0.21875,0.875 0.145827,0.229168 0.364576,0.406252 0.65625,0.53125 0.218743,0.104168 0.455722,0.182293 0.710937,0.234375 0.255201,0.05208 0.518221,0.08854 0.789063,0.109375 l 0,1.03125 -7.546875,0 0,-1.03125 c 0.239582,-0.02083 0.486978,-0.04167 0.742187,-0.0625 0.255207,-0.02083 0.476561,-0.0625 0.664063,-0.125 0.291664,-0.09375 0.507809,-0.257811 0.648437,-0.492188 0.140622,-0.234373 0.210935,-0.53906 0.210938,-0.914062 l 0,-9.515625 c -3e-6,-0.354154 -0.07552,-0.679675 -0.226563,-0.976563 -0.151044,-0.296861 -0.361981,-0.539048 -0.632812,-0.726562 -0.197919,-0.124986 -0.432294,-0.216132 -0.703125,-0.273438 -0.270835,-0.05728 -0.562501,-0.09634 -0.875,-0.117187 l 0,-1.015625 5.125,-0.34375 0.21875,0.21875 0,2.171875 0.07813,0 C 42.312493,21.546888 42.624993,21.24741 43,20.898437 c 0.374992,-0.348943 0.729159,-0.632797 1.0625,-0.851562 0.385408,-0.249985 0.843741,-0.458318 1.375,-0.625 0.53124,-0.166651 1.130197,-0.249984 1.796875,-0.25 1.479154,1.6e-5 2.575507,0.460953 3.289062,1.382812 0.713527,0.921889 1.070297,2.14845 1.070313,3.679688 l 0,8.015625 c -1.6e-5,0.364586 0.06248,0.658856 0.1875,0.882812 0.124984,0.22396 0.338525,0.398439 0.640625,0.523438 0.249983,0.104168 0.466129,0.177084 0.648437,0.21875 0.182275,0.04167 0.434879,0.07292 0.757813,0.09375 z"
         style="font-size:32px;text-anchor:middle;font-family:Georgia"
         id="path4188" />
      <path
         d="m 54.578125,40.03125 c 0,-0.520838 0.143229,-0.945317 0.429687,-1.273438 0.286458,-0.328128 0.643229,-0.49219 1.070313,-0.492187 0.333332,-3e-6 0.61979,0.0625 0.859375,0.1875 0.239581,0.124996 0.453122,0.286455 0.640625,0.484375 0.156247,0.156246 0.322913,0.369787 0.5,0.640625 0.17708,0.270828 0.317705,0.494787 0.421875,0.671875 0.520829,-0.281255 1.143224,-1.015629 1.867187,-2.203125 0.723952,-1.187502 1.247389,-2.229167 1.570313,-3.125 -0.98959,-2.468747 -1.885422,-4.677079 -2.6875,-6.625 -0.802087,-1.947908 -1.640628,-3.963531 -2.515625,-6.046875 -0.197919,-0.479153 -0.531252,-0.851549 -1,-1.117188 -0.468751,-0.26561 -0.9375,-0.434881 -1.40625,-0.507812 l 0,-1.03125 7.03125,0 0,1.09375 c -0.312506,0.01043 -0.687506,0.07553 -1.125,0.195312 -0.437505,0.119806 -0.656255,0.257827 -0.65625,0.414063 -5e-6,0.06251 0.02343,0.16668 0.07031,0.3125 0.04687,0.145847 0.101558,0.296888 0.164063,0.453125 0.395828,1.031262 0.999994,2.51824 1.8125,4.460937 0.812492,1.942715 1.4427,3.497401 1.890625,4.664063 0.468741,-1.114578 0.955719,-2.268223 1.460937,-3.460938 0.505198,-1.192699 1.070302,-2.601552 1.695313,-4.226562 0.07291,-0.197905 0.177071,-0.471342 0.3125,-0.820313 0.135404,-0.348945 0.203112,-0.648424 0.203125,-0.898437 -1.3e-5,-0.27082 -0.236991,-0.523424 -0.710938,-0.757813 -0.473969,-0.23436 -0.92449,-0.377589 -1.351562,-0.429687 l 0,-1 5.71875,0 0,0.96875 c -0.312516,0.0521 -0.723974,0.231785 -1.234375,0.539062 -0.510431,0.307306 -0.890639,0.742201 -1.140625,1.304688 -1.239596,2.87501 -2.341157,5.494799 -3.304688,7.859375 -0.963551,2.364586 -1.695321,4.104167 -2.195312,5.21875 -0.656258,1.458331 -1.242195,2.596351 -1.757813,3.414062 -0.515631,0.817704 -1.018234,1.460933 -1.507812,1.929688 -0.479171,0.437494 -0.914067,0.731764 -1.304688,0.882812 -0.390628,0.151035 -0.794273,0.226556 -1.210937,0.226563 -0.812502,-7e-6 -1.450522,-0.192715 -1.914063,-0.578125 -0.463541,-0.385423 -0.695312,-0.828131 -0.695312,-1.328125 z"
         style="font-size:32px;text-anchor:middle;font-family:Georgia"
         id="path4190" />
      <path
         d="m 78.71875,35 -7.515625,0 0,-1.03125 c 0.239582,-0.02083 0.49479,-0.04427 0.765625,-0.07031 0.270831,-0.02604 0.49479,-0.0651 0.671875,-0.117187 0.291664,-0.09375 0.510414,-0.257811 0.65625,-0.492188 0.14583,-0.234373 0.218747,-0.53906 0.21875,-0.914062 l 0,-17.84375 c -3e-6,-0.374979 -0.08073,-0.726541 -0.242188,-1.054687 -0.161461,-0.328104 -0.372398,-0.585916 -0.632812,-0.773438 -0.187502,-0.124978 -0.531252,-0.239561 -1.03125,-0.34375 -0.500001,-0.104144 -0.901042,-0.166644 -1.203125,-0.1875 l 0,-1 5.796875,-0.359375 0.21875,0.234375 0,21.140625 c -6e-6,0.364586 0.0677,0.664065 0.203125,0.898437 0.13541,0.234377 0.35416,0.414065 0.65625,0.539063 0.22916,0.104168 0.455722,0.182293 0.679687,0.234375 0.223951,0.05208 0.476555,0.08854 0.757813,0.109375 z"
         style="font-size:32px;text-anchor:middle;font-family:Georgia"
         id="path4192" />
    </g>
    <g
       transform="matrix(0.75,0,0,0.75, 85.1406, 13.6229)"
       id="g4171">
      <g
         id="g4173">
        <path
           d="M31.11,23a0.89,0.89,0,0,1-.89-0.88V15.88C30.22,6.91,25,1.76,16,1.76S1.78,6.91,1.78,15.88v6.23a0.89,0.89,0,0,1-1.78,0V15.88A19.12,19.12,0,0,1,1.25,8.74a13.13,13.13,0,0,1,3.47-5C7.49,1.3,11.39,0,16,0s8.51,1.3,11.28,3.75a13.17,13.17,0,0,1,3.47,5A19.1,19.1,0,0,1,32,15.88v6.23a0.89,0.89,0,0,1-.89.88h0ZM9.78,14.12a2.67,2.67,0,0,0-2.52,1.79A5.64,5.64,0,0,0,3,17.76a6.56,6.56,0,0,0-1.19,4.3A6.54,6.54,0,0,0,3,26.36a5.62,5.62,0,0,0,4.28,1.86,2.67,2.67,0,0,0,5.19-.86V16.76A2.66,2.66,0,0,0,9.78,14.12ZM3.56,22.06c0-2.49.62-4.11,3.56-4.38v8.75C4.18,26.17,3.56,24.55,3.56,22.06Zm7.11,5.29a0.89,0.89,0,0,1-1.78,0V16.76a0.89,0.89,0,0,1,1.78,0V27.35ZM29,17.76a5.62,5.62,0,0,0-4.28-1.86,2.67,2.67,0,0,0-5.19.86V27.35a2.67,2.67,0,0,0,5.19.86A5.63,5.63,0,0,0,29,26.36a6.53,6.53,0,0,0,1.2-4.3,6.54,6.54,0,0,0-1.2-4.3h0Zm-6.8,10.47a0.89,0.89,0,0,1-.89-0.88V16.76a0.89,0.89,0,0,1,1.78,0V27.35A0.89,0.89,0,0,1,22.22,28.24Zm2.67-1.8V17.68c2.93,0.26,3.56,1.89,3.56,4.38S27.82,26.17,24.89,26.44Z"
           fill="#ff5656"
           id="path4175" />
      </g>
    </g>
  </g>
</svg>
